<svg xmlns="http://www.w3.org/2000/svg" xml:space="preserve" width="512" height="512" style="enable-background:new 0 0 512 512">
  <path d="m264.26 80.845 1.168 29.064h-18.855l1.167-29.064h-45.884c-30.747 116.771-61.499 233.539-92.245 350.311h124.055l1.168-29.064h42.332c.391 9.688.78 19.375 1.168 29.064h124.055c-30.747-116.771-61.498-233.54-92.245-350.311H264.26zm-19.437 72.581c7.451 0 14.902-.004 22.354-.002 1.082 26.939 2.163 53.88 3.247 80.818h-28.848c1.086-26.938 2.166-53.878 3.247-80.816zm-8.241 205.148c1.081-26.938 2.165-53.877 3.247-80.815l32.342-.002c1.083 26.938 2.166 53.879 3.247 80.817h-38.836z"/>
  <path fill="#fff" d="M340.221 80.845H324.6c38.961 116.771 77.913 233.541 116.876 350.311h42.232c-47.827-116.772-95.657-233.541-143.487-350.311zM171.779 80.845c-47.83 116.771-95.661 233.539-143.487 350.311h42.233c38.958-116.77 77.915-233.54 116.875-350.311h-15.621z"/>
</svg>