<svg xmlns="http://www.w3.org/2000/svg" width="421.689" height="369.887">
  <path d="m498.245 696.942-.152.145 21.569 21.645c.045.045.077.095.117.142a7.674 7.674 0 0 1 1.708-.699l-5.11-42.305c-5.1 7.258-11.2 14.39-18.132 21.072zM516.836 721.547l-21.66-21.737c-6.165 5.625-12.635 10.603-19.185 14.822l40.102 9.58a7.585 7.585 0 0 1 .879-2.555c-.046-.038-.093-.067-.136-.11zM553.16 709.597a2.464 2.464 0 0 0-2.463 2.456c-.004 1.614-.546 39.543-39.541 39.543a2.461 2.461 0 0 0 0 4.924c43.957 0 44.464-44.02 44.464-44.464a2.457 2.457 0 0 0-2.458-2.459h-.002z" style="fill:#000" transform="translate(-217.727 -441.704)"/>
  <path d="M588.16 689.777a2.676 2.676 0 0 0-2.675 2.677c0 .424-.322 42.77-28.251 70.598-16.242 16.183-38.631 24.385-66.56 24.385h-.521a2.677 2.677 0 0 0-.008 5.353h.528c29.397 0 53.058-8.727 70.338-25.944 29.486-29.384 29.825-72.567 29.825-74.39a2.674 2.674 0 0 0-2.675-2.679zM516.082 728.165c.114.028.228.034.34.041a10.041 10.041 0 0 0 2.432 3.98c1.874 1.888 4.387 2.97 6.892 2.97 2.074 0 3.99-.749 5.4-2.106 1.44-1.387 2.247-3.304 2.27-5.399.028-2.45-1.017-4.925-2.87-6.794-1.45-1.46-3.283-2.433-5.197-2.8l-5.688-47.097c8.757-13.774 13.799-27.732 13.933-39.685.099-8.659-2.48-15.888-7.458-20.904-5.07-5.113-12.514-7.815-21.524-7.815-6.913 0-14.517 1.545-22.391 4.421l-18.085-18.23 12.519-12.064 19.052 19.206 92.325-88.986-52.295-52.715-92.327 88.982 20.296 20.46-12.518 12.063-37.626-37.93-.391.375c-.031-.032-.057-.068-.088-.1-3.396-3.423-8.35-5.233-14.327-5.233-12.897 0-29.456 8.237-43.215 21.497-13.914 13.41-22.646 29.68-22.791 42.46-.065 5.753 1.665 10.573 5.002 13.938.02.021.045.04.066.061l-.388.374 37.005 37.304-13.16 12.68-19.671-19.83-92.33 88.985 52.296 52.718 92.329-88.986-19.673-19.832 13.158-12.68 19.289 19.444c-2.713 7.232-4.204 14.225-4.276 20.64-.098 8.661 2.48 15.89 7.458 20.904 5.072 5.111 12.516 7.814 21.525 7.814 11.98 0 26.035-4.638 39.98-12.812l44.722 10.681zm-40.091-13.532c6.55-4.219 13.02-9.197 19.185-14.822l21.66 21.737c.042.042.09.072.135.111a7.607 7.607 0 0 0-.88 2.554l-40.1-9.58zm43.787 4.24c-.04-.047-.072-.097-.117-.142l-21.57-21.645c.05-.049.103-.096.153-.145 6.934-6.683 13.032-13.814 18.13-21.072l5.11 42.305a7.783 7.783 0 0 0-1.706.7z" style="fill:#000" transform="translate(-217.727 -441.704)"/>
</svg>