<svg xmlns="http://www.w3.org/2000/svg" xml:space="preserve" style="enable-background:new 0 0 489.854 489.854" viewBox="0 0 489.854 489.854">
  <path d="M485.014 392.413c-36.617-51.589-148.913-211.11-148.913-211.11a16.171 16.171 0 0 0-11.584-6.778c-4.682-.451-9.3 1.092-12.719 4.287l-29.426 27.545-69.05-128.155a16.217 16.217 0 0 0-14.046-8.512c-5.778-.26-11.345 3.03-14.272 8.125L2.151 395.902a16.257 16.257 0 0 0 .016 16.192c2.911 5 8.26 8.085 14.034 8.085h457.138c.111-.016.222-.008.313 0 8.959 0 16.202-7.253 16.202-16.2 0-4.533-2.415-8.149-4.84-11.566zM289.175 244.384l31.169-29.197 61.973 87.856-52.577-54.766a4.622 4.622 0 0 0-3.26-1.401 4.607 4.607 0 0 0-3.256 1.338l-37.499 37.45a4.54 4.54 0 0 1-4.968.981 4.521 4.521 0 0 1-2.8-4.217l.143-34.056c4.05 0 8.037-1.162 11.075-3.988zm-90.581-125.189 40.203 74.591-30.189 26.628a4.542 4.542 0 0 1-6.58-.593l-19.351-24.556a4.554 4.554 0 0 0-7.434.397l-29.255 46.65a4.565 4.565 0 0 1-8.101-.744l-3.923-9.936 64.63-112.437z"/>
</svg>